<?xml version="1.0" encoding="UTF-8"?>
<svg width="17px" height="17px" viewBox="0 0 17 17" version="1.1" xmlns="http://www.w3.org/2000/svg" xmlns:xlink="http://www.w3.org/1999/xlink">
    <title>3.1-搜索</title>
    <g id="页面-1" stroke="none" stroke-width="1" fill="none" fill-rule="evenodd">
        <g id="一张图" transform="translate(-491.000000, -118.000000)" fill="#FFFFFF" fill-rule="nonzero">
            <g id="编组-15备份-17" transform="translate(485.000000, 112.000000)">
                <g id="编组-24" transform="translate(6.495404, 4.773291)">
                    <g id="3.1-搜索" transform="translate(0.000000, 2.000000)">
                        <rect id="矩形" opacity="0" x="0" y="0" width="16" height="16"></rect>
                        <path d="M14.5975349,13.8224684 L11.5357388,10.8681514 L11.5644393,10.8321758 C12.3889363,9.81126795 12.8430284,8.52588345 12.8430284,7.21352522 C12.8430284,4.03045134 10.2532963,1.44049533 7.07097387,1.44049533 C3.88767616,1.44049533 1.29744833,4.03045134 1.29744833,7.21352522 C1.29744833,10.3965831 3.88767616,12.9862993 7.07097387,12.9862993 C8.46575622,12.9862993 9.81333855,12.479267 10.8653773,11.5599224 L10.8998979,11.5297668 L13.9543549,14.4510662 L13.9849742,14.4510662 L13.9854698,14.476361 C14.0627774,14.5307881 14.1498064,14.5594727 14.2445901,14.5594727 C14.4974107,14.5594727 14.7025357,14.3533404 14.7025357,14.1014952 C14.7025357,14.0043131 14.6675514,13.909993 14.5975349,13.8224684 Z M7.07095789,12.0689532 C4.39347722,12.0689532 2.21554586,9.89100589 2.21554586,7.21354122 C2.21554586,4.53631638 4.39347722,2.3588487 7.07095789,2.3588487 C9.74767108,2.3588487 11.9256504,4.53631638 11.9256504,7.21354122 C11.9256504,9.89100589 9.74768706,12.0689532 7.07095789,12.0689532 Z" id="形状"></path>
                    </g>
                </g>
            </g>
        </g>
    </g>
</svg>